<svg width="150" height="50" viewBox="0 0 150 50" fill="none" xmlns="http://www.w3.org/2000/svg">
<path d="M88.696 23.344V23.984C87.9707 24.0267 87.4267 24.1547 87.064 24.368C86.7013 24.5813 86.456 24.9333 86.328 25.424C86.2213 25.8933 86.168 26.5653 86.168 27.44V46.128C85.9973 46.128 85.8267 46.128 85.656 46.128C85.4853 46.128 85.304 46.128 85.112 46.128L71.544 26.416V41.776C71.544 42.672 71.608 43.376 71.736 43.888C71.864 44.3787 72.1413 44.7307 72.568 44.944C72.9947 45.1573 73.6453 45.296 74.52 45.36V46C74.1147 45.9573 73.592 45.936 72.952 45.936C72.3333 45.9147 71.7467 45.904 71.192 45.904C70.6587 45.904 70.1253 45.9147 69.592 45.936C69.0587 45.936 68.6213 45.9573 68.28 46V45.36C68.984 45.296 69.5173 45.168 69.88 44.976C70.2427 44.7627 70.488 44.4107 70.616 43.92C70.744 43.4293 70.808 42.7573 70.808 41.904V26.736C70.808 25.9467 70.744 25.3707 70.616 25.008C70.488 24.624 70.2427 24.368 69.88 24.24C69.5173 24.0907 68.984 24.0053 68.28 23.984V23.344C68.6213 23.3653 69.0587 23.3867 69.592 23.408C70.1253 23.4293 70.6587 23.44 71.192 23.44C71.6613 23.44 72.12 23.4293 72.568 23.408C73.016 23.3867 73.4107 23.3653 73.752 23.344L85.432 40.048V27.568C85.432 26.6507 85.3573 25.9467 85.208 25.456C85.08 24.9653 84.8027 24.6133 84.376 24.4C83.9493 24.1653 83.3093 24.0267 82.456 23.984V23.344C82.84 23.3653 83.352 23.3867 83.992 23.408C84.632 23.4293 85.2293 23.44 85.784 23.44C86.3173 23.44 86.8507 23.4293 87.384 23.408C87.9173 23.3867 88.3547 23.3653 88.696 23.344ZM96.0385 46.224C95.1425 46.224 94.3745 46.0533 93.7345 45.712C93.0945 45.3707 92.6145 44.9013 92.2945 44.304C91.9745 43.7067 91.8145 43.024 91.8145 42.256C91.8145 41.3173 92.0278 40.56 92.4545 39.984C92.8812 39.3867 93.4252 38.9067 94.0865 38.544C94.7692 38.1813 95.4838 37.8827 96.2305 37.648C96.9985 37.392 97.7132 37.1573 98.3745 36.944C99.0572 36.7093 99.6118 36.4427 100.039 36.144C100.487 35.8453 100.711 35.4507 100.711 34.96V32.784C100.711 32.016 100.583 31.408 100.327 30.96C100.092 30.4907 99.7612 30.16 99.3345 29.968C98.9292 29.776 98.4385 29.68 97.8625 29.68C97.3718 29.68 96.8492 29.7547 96.2945 29.904C95.7398 30.032 95.3025 30.2987 94.9825 30.704C95.4518 30.832 95.8358 31.088 96.1345 31.472C96.4545 31.8347 96.6145 32.2933 96.6145 32.848C96.6145 33.4453 96.4118 33.9147 96.0065 34.256C95.6225 34.5973 95.1318 34.768 94.5345 34.768C93.8732 34.768 93.3825 34.5653 93.0625 34.16C92.7425 33.7333 92.5825 33.2427 92.5825 32.688C92.5825 32.112 92.7212 31.6427 92.9985 31.28C93.2972 30.9173 93.6812 30.576 94.1505 30.256C94.6625 29.9147 95.3132 29.6267 96.1025 29.392C96.9132 29.1573 97.8092 29.04 98.7905 29.04C99.7078 29.04 100.497 29.1467 101.159 29.36C101.841 29.552 102.407 29.872 102.855 30.32C103.388 30.8107 103.74 31.4293 103.911 32.176C104.081 32.9013 104.167 33.7867 104.167 34.832V43.664C104.167 44.1973 104.231 44.5813 104.359 44.816C104.508 45.0293 104.743 45.136 105.063 45.136C105.276 45.136 105.479 45.0827 105.671 44.976C105.884 44.8693 106.129 44.7093 106.407 44.496L106.727 45.04C106.279 45.4027 105.82 45.6907 105.351 45.904C104.903 46.1173 104.327 46.224 103.623 46.224C102.94 46.224 102.385 46.1173 101.959 45.904C101.532 45.6907 101.212 45.3813 100.999 44.976C100.807 44.5707 100.711 44.0693 100.711 43.472C100.156 44.368 99.4945 45.0507 98.7265 45.52C97.9585 45.9893 97.0625 46.224 96.0385 46.224ZM97.5745 44.688C98.1718 44.688 98.7265 44.5173 99.2385 44.176C99.7718 43.8347 100.263 43.3227 100.711 42.64V36.272C100.476 36.6133 100.135 36.912 99.6865 37.168C99.2385 37.4027 98.7585 37.648 98.2465 37.904C97.7345 38.16 97.2438 38.4587 96.7745 38.8C96.3265 39.12 95.9532 39.536 95.6545 40.048C95.3558 40.56 95.2065 41.2107 95.2065 42C95.2065 42.832 95.4198 43.4933 95.8465 43.984C96.2732 44.4533 96.8492 44.688 97.5745 44.688ZM113.123 21.424C113.784 21.424 114.339 21.6373 114.787 22.064C115.235 22.4693 115.459 22.9813 115.459 23.6C115.459 24.2187 115.235 24.7413 114.787 25.168C114.339 25.5733 113.784 25.776 113.123 25.776C112.461 25.776 111.907 25.5733 111.459 25.168C111.011 24.7413 110.787 24.2187 110.787 23.6C110.787 22.9813 111.011 22.4693 111.459 22.064C111.907 21.6373 112.461 21.424 113.123 21.424ZM115.043 29.136V43.024C115.043 43.92 115.213 44.528 115.555 44.848C115.917 45.168 116.515 45.328 117.347 45.328V46C116.984 45.9787 116.419 45.9573 115.651 45.936C114.904 45.8933 114.136 45.872 113.347 45.872C112.6 45.872 111.832 45.8933 111.043 45.936C110.253 45.9573 109.667 45.9787 109.283 46V45.328C110.115 45.328 110.701 45.168 111.043 44.848C111.405 44.528 111.587 43.92 111.587 43.024V32.976C111.587 32.016 111.427 31.312 111.107 30.864C110.787 30.3947 110.179 30.16 109.283 30.16V29.488C109.965 29.552 110.627 29.584 111.267 29.584C111.992 29.584 112.664 29.552 113.283 29.488C113.923 29.4027 114.509 29.2853 115.043 29.136ZM126.044 20.912V43.024C126.044 43.92 126.215 44.528 126.556 44.848C126.919 45.168 127.516 45.328 128.348 45.328V46C127.986 45.9787 127.42 45.9573 126.652 45.936C125.884 45.8933 125.116 45.872 124.348 45.872C123.58 45.872 122.802 45.8933 122.012 45.936C121.244 45.9573 120.668 45.9787 120.284 46V45.328C121.116 45.328 121.703 45.168 122.044 44.848C122.407 44.528 122.588 43.92 122.588 43.024V24.752C122.588 23.792 122.428 23.088 122.108 22.64C121.788 22.1707 121.18 21.936 120.284 21.936V21.264C120.967 21.328 121.628 21.36 122.268 21.36C122.972 21.36 123.644 21.328 124.284 21.264C124.924 21.1787 125.511 21.0613 126.044 20.912ZM137.435 29.04C138.288 29.04 139.024 29.1787 139.643 29.456C140.283 29.712 140.741 29.9467 141.019 30.16C141.723 30.7147 142.16 30.352 142.331 29.072H143.035C142.992 29.6693 142.96 30.3947 142.939 31.248C142.917 32.08 142.907 33.1893 142.907 34.576H142.203C142.075 33.7867 141.851 33.0187 141.531 32.272C141.232 31.5253 140.784 30.9067 140.187 30.416C139.611 29.9253 138.853 29.68 137.915 29.68C137.211 29.68 136.624 29.8827 136.155 30.288C135.685 30.672 135.451 31.248 135.451 32.016C135.451 32.656 135.643 33.2107 136.027 33.68C136.411 34.1493 136.901 34.5867 137.499 34.992C138.117 35.3973 138.779 35.8347 139.483 36.304C140.272 36.8373 140.976 37.3707 141.595 37.904C142.235 38.416 142.736 38.992 143.099 39.632C143.483 40.272 143.675 41.0187 143.675 41.872C143.675 42.8533 143.408 43.6853 142.875 44.368C142.363 45.0507 141.68 45.5733 140.827 45.936C139.973 46.2773 139.035 46.448 138.011 46.448C137.499 46.448 137.019 46.3947 136.571 46.288C136.123 46.2027 135.707 46.0853 135.323 45.936C135.088 45.808 134.853 45.68 134.619 45.552C134.405 45.4027 134.192 45.264 133.979 45.136C133.765 44.9867 133.573 45.008 133.403 45.2C133.232 45.392 133.104 45.7333 133.019 46.224H132.315C132.357 45.5413 132.389 44.7093 132.411 43.728C132.432 42.7467 132.443 41.4453 132.443 39.824H133.147C133.296 40.9973 133.52 42.032 133.819 42.928C134.117 43.824 134.555 44.528 135.131 45.04C135.728 45.5307 136.539 45.776 137.563 45.776C137.968 45.776 138.373 45.6907 138.779 45.52C139.184 45.328 139.515 45.0293 139.771 44.624C140.048 44.2187 140.187 43.6747 140.187 42.992C140.187 42.0533 139.856 41.2853 139.195 40.688C138.555 40.0693 137.723 39.4187 136.699 38.736C135.973 38.224 135.28 37.7227 134.619 37.232C133.979 36.72 133.456 36.1547 133.051 35.536C132.645 34.896 132.443 34.1387 132.443 33.264C132.443 32.304 132.667 31.5147 133.115 30.896C133.584 30.2773 134.203 29.8187 134.971 29.52C135.739 29.2 136.56 29.04 137.435 29.04Z" fill="white"/>
<path d="M34.9292 11.2155C34.8965 11.136 34.8527 11.0663 34.8003 11.0104C34.7479 10.9546 34.688 10.9138 34.6241 10.8904C34.2541 10.7606 33.8699 10.7268 33.4911 10.7909C33.7273 9.51308 33.5937 8.50676 33.4588 7.93273C33.4192 7.76114 33.3347 7.6161 33.2219 7.52593C33.109 7.43575 32.9759 7.40692 32.8485 7.44505C32.3657 7.59533 31.9108 7.88267 31.5126 8.28882C31.2497 7.44508 30.8359 6.70746 30.3102 6.14517C30.2208 6.051 30.1115 6 29.9991 6C29.8866 6 29.7773 6.051 29.6879 6.14517C29.1622 6.70746 28.7484 7.44508 28.4855 8.28882C28.0873 7.88277 27.6324 7.59545 27.1496 7.44505C27.0222 7.40692 26.8891 7.43575 26.7763 7.52593C26.6634 7.6161 26.579 7.76114 26.5394 7.93273C26.4045 8.50914 26.2709 9.51546 26.507 10.7909C26.1286 10.7271 25.7449 10.7608 25.3753 10.8904C25.3114 10.9138 25.2515 10.9546 25.1991 11.0104C25.1467 11.0663 25.1029 11.136 25.0702 11.2155C25.0356 11.2977 25.0132 11.3885 25.0043 11.4828C24.9954 11.5771 25.0003 11.6728 25.0185 11.7645C25.1581 12.4791 25.5874 13.8373 26.894 14.9157C28.2007 15.994 29.3733 16 30.0004 16C30.6274 16 31.7936 16 33.1062 14.9157C34.4189 13.8313 34.8421 12.4785 34.9818 11.7645C34.9999 11.6728 35.0046 11.577 34.9955 11.4827C34.9865 11.3884 34.9639 11.2976 34.9292 11.2155ZM32.9222 7.90832C32.9664 7.89567 33.0125 7.9063 33.0513 7.93814C33.0901 7.96998 33.119 8.02072 33.1321 8.08041C33.3045 8.82473 33.4769 10.364 32.668 12.3082C32.2176 13.3913 31.5858 14.2255 31.0256 14.7757C31.4656 13.9754 31.8966 12.7393 31.8966 10.9499C31.9011 10.2012 31.8155 9.45662 31.6432 8.74673C32.0196 8.34056 32.4564 8.05428 32.9222 7.90832ZM26.8686 8.08041C26.8821 8.0212 26.9111 7.97106 26.9499 7.93979C26.9887 7.90852 27.0345 7.89836 27.0785 7.9113C27.5441 8.05637 27.9809 8.34162 28.3576 8.74673C28.1852 9.45662 28.0996 10.2012 28.1042 10.9499C28.1042 12.7393 28.5351 13.976 28.9751 14.7745C28.4149 14.2243 27.7831 13.3901 27.3327 12.307C26.5234 10.361 26.6945 8.82175 26.8686 8.08041ZM27.072 14.5114C25.8697 13.5187 25.4775 12.2891 25.3525 11.6442C25.3461 11.6131 25.3444 11.5806 25.3475 11.5485C25.3505 11.5165 25.3582 11.4856 25.3702 11.4578C25.3802 11.4327 25.3938 11.4106 25.4102 11.3929C25.4266 11.3752 25.4453 11.3623 25.4654 11.3548C25.8422 11.2242 26.2346 11.2039 26.6174 11.2953C26.7275 11.7292 26.8669 12.1478 27.0337 12.5457C27.606 13.9213 28.4412 14.9079 29.1139 15.47C28.3908 15.3576 27.694 15.0291 27.072 14.5072V14.5114ZM30.0025 15.4843C29.7216 15.2141 29.4732 14.8846 29.2664 14.5078C28.7234 13.5336 28.4489 12.3379 28.4489 10.9499C28.4489 8.31502 29.4612 6.97524 29.8965 6.52209C29.9264 6.49089 29.9629 6.47401 30.0004 6.47401C30.0378 6.47401 30.0743 6.49089 30.1042 6.52209C30.5395 6.97524 31.5518 8.31502 31.5518 10.9499C31.5518 12.3379 31.2773 13.5336 30.7364 14.5036C30.5296 14.8804 30.2812 15.21 30.0004 15.4802L30.0025 15.4843ZM34.6504 11.6442C34.5245 12.2891 34.1332 13.5187 32.9308 14.5114C32.3088 15.0328 31.612 15.361 30.889 15.473C31.5617 14.9109 32.3973 13.9248 32.9692 12.5487C33.136 12.1508 33.2753 11.7322 33.3855 11.2983C33.7683 11.2066 34.1607 11.2269 34.5374 11.3578C34.5575 11.3653 34.5763 11.3782 34.5927 11.3959C34.609 11.4136 34.6226 11.4357 34.6327 11.4608C34.6547 11.5154 34.6603 11.5798 34.6482 11.6401L34.6504 11.6442Z" fill="white"/>
<path d="M17.9575 19.1293C17.9379 19.0816 17.9116 19.0398 17.8802 19.0063C17.8488 18.9728 17.8128 18.9483 17.7744 18.9342C17.5525 18.8563 17.322 18.8361 17.0947 18.8746C17.2364 18.1078 17.1562 17.5041 17.0753 17.1596C17.0515 17.0567 17.0008 16.9697 16.9331 16.9156C16.8654 16.8615 16.7856 16.8442 16.7091 16.867C16.4194 16.9572 16.1465 17.1296 15.9075 17.3733C15.7498 16.867 15.5016 16.4245 15.1861 16.0871C15.1325 16.0306 15.0669 16 14.9994 16C14.932 16 14.8664 16.0306 14.8127 16.0871C14.4973 16.4245 14.2491 16.867 14.0913 17.3733C13.8524 17.1297 13.5794 16.9573 13.2898 16.867C13.2133 16.8442 13.1335 16.8615 13.0658 16.9156C12.9981 16.9697 12.9474 17.0567 12.9236 17.1596C12.8427 17.5055 12.7625 18.1093 12.9042 18.8746C12.6772 18.8362 12.4469 18.8565 12.2252 18.9342C12.1868 18.9483 12.1509 18.9728 12.1194 19.0063C12.088 19.0398 12.0617 19.0816 12.0421 19.1293C12.0214 19.1786 12.0079 19.2331 12.0026 19.2897C11.9973 19.3462 12.0002 19.4037 12.0111 19.4587C12.0949 19.8874 12.3524 20.7024 13.1364 21.3494C13.9204 21.9964 14.624 22 15.0002 22C15.3764 22 16.0761 22 16.8637 21.3494C17.6514 20.6988 17.9053 19.8871 17.9891 19.4587C17.9999 19.4037 18.0027 19.3462 17.9973 19.2896C17.9919 19.233 17.9784 19.1785 17.9575 19.1293ZM16.7533 17.145C16.7799 17.1374 16.8075 17.1438 16.8308 17.1629C16.8541 17.182 16.8714 17.2124 16.8793 17.2482C16.9827 17.6948 17.0861 18.6184 16.6008 19.7849C16.3306 20.4348 15.9515 20.9353 15.6154 21.2654C15.8794 20.7853 16.1379 20.0436 16.1379 18.97C16.1407 18.5207 16.0893 18.074 15.9859 17.648C16.2118 17.4043 16.4738 17.2326 16.7533 17.145ZM13.1212 17.2482C13.1293 17.2127 13.1466 17.1826 13.1699 17.1639C13.1932 17.1451 13.2207 17.139 13.2471 17.1468C13.5265 17.2338 13.7885 17.405 14.0145 17.648C13.9111 18.074 13.8598 18.5207 13.8625 18.97C13.8625 20.0436 14.1211 20.7856 14.3851 21.2647C14.0489 20.9346 13.6699 20.4341 13.3996 19.7842C12.914 18.6166 13.0167 17.6931 13.1212 17.2482ZM13.2432 21.1068C12.5218 20.5112 12.2865 19.7735 12.2115 19.3865C12.2077 19.3679 12.2067 19.3483 12.2085 19.3291C12.2103 19.3099 12.2149 19.2914 12.2221 19.2747C12.2281 19.2596 12.2363 19.2464 12.2461 19.2358C12.2559 19.2251 12.2672 19.2174 12.2792 19.2129C12.5053 19.1345 12.7407 19.1223 12.9704 19.1772C13.0365 19.4375 13.1201 19.6887 13.2202 19.9274C13.5636 20.7528 14.0647 21.3448 14.4683 21.682C14.0345 21.6146 13.6164 21.4174 13.2432 21.1043V21.1068ZM15.0015 21.6906C14.833 21.5285 14.6839 21.3308 14.5599 21.1047C14.2341 20.5202 14.0693 19.8028 14.0693 18.97C14.0693 17.389 14.6767 16.5851 14.9379 16.3133C14.9558 16.2945 14.9777 16.2844 15.0002 16.2844C15.0227 16.2844 15.0446 16.2945 15.0625 16.3133C15.3237 16.5851 15.9311 17.389 15.9311 18.97C15.9311 19.8028 15.7664 20.5202 15.4419 21.1022C15.3178 21.3283 15.1687 21.526 15.0002 21.6881L15.0015 21.6906ZM17.7902 19.3865C17.7147 19.7735 17.4799 20.5112 16.7585 21.1068C16.3853 21.4197 15.9672 21.6166 15.5334 21.6838C15.937 21.3465 16.4384 20.7549 16.7815 19.9292C16.8816 19.6905 16.9652 19.4393 17.0313 19.179C17.261 19.124 17.4964 19.1361 17.7225 19.2147C17.7345 19.2192 17.7458 19.2269 17.7556 19.2376C17.7654 19.2482 17.7736 19.2614 17.7796 19.2765C17.7928 19.3093 17.7962 19.3479 17.7889 19.384L17.7902 19.3865Z" fill="white"/>
<path d="M59.5751 25.5559C59.3792 25.1663 59.1164 24.8247 58.802 24.5512C58.4877 24.2776 58.1281 24.0776 57.7444 23.9628C55.5248 23.3267 53.2197 23.1615 50.9465 23.4756C52.3635 17.2141 51.5619 12.2831 50.7526 9.4704C50.515 8.6296 50.0082 7.9189 49.3312 7.47704C48.6542 7.03519 47.8556 6.8939 47.0912 7.08077C44.1942 7.81712 41.4645 9.22506 39.0754 11.2152C37.4981 7.08088 35.0157 3.46653 31.8613 0.711332C31.3248 0.249908 30.6689 0 29.9944 0C29.3198 0 28.6639 0.249908 28.1275 0.711332C24.973 3.46653 22.4907 7.08088 20.9133 11.2152C18.5239 9.22557 15.7943 7.81769 12.8975 7.08077C12.1332 6.8939 11.3345 7.03519 10.6575 7.47704C9.98051 7.9189 9.47373 8.6296 9.23613 9.4704C8.42679 12.2948 7.62522 17.2258 9.0422 23.4756C6.7716 23.1626 4.46924 23.3278 2.25207 23.9628C1.86836 24.0776 1.50879 24.2776 1.19444 24.5512C0.88009 24.8247 0.617271 25.1663 0.421376 25.5559C0.213665 25.9585 0.0792315 26.4038 0.0259515 26.8657C-0.0273286 27.3276 0.00161549 27.7969 0.111088 28.2461C0.948865 31.7474 3.52425 38.4027 11.3642 43.6868C19.2041 48.9708 26.2399 49 30.0021 49C33.7644 49 40.7613 49 48.6375 43.6868C56.5136 38.3736 59.0528 31.7445 59.8906 28.2461C59.9993 27.7965 60.0274 27.3271 59.9732 26.8651C59.919 26.4032 59.7837 25.9581 59.5751 25.5559ZM47.5334 9.35077C47.7987 9.28877 48.0749 9.34088 48.3079 9.49689C48.5409 9.6529 48.7137 9.90154 48.7926 10.194C49.8269 13.8412 50.8612 21.3835 46.0078 30.91C43.3057 36.2174 39.515 40.3051 36.1536 43.0011C38.7936 39.0797 41.3793 33.0224 41.3793 24.2546C41.4067 20.5858 40.8929 16.9374 39.8589 13.459C42.1179 11.4688 44.7384 10.066 47.5334 9.35077ZM11.2116 10.194C11.2926 9.90387 11.4664 9.65819 11.6993 9.50497C11.9321 9.35174 12.2072 9.30197 12.4709 9.36536C15.2648 10.0762 17.8852 11.474 20.1453 13.459C19.1114 16.9374 18.5975 20.5858 18.6249 24.2546C18.6249 33.0224 21.2106 39.0826 23.8507 42.9953C20.4892 40.2993 16.6985 36.2115 13.9965 30.9041C9.14046 21.369 10.167 13.8266 11.2116 10.194ZM12.4321 41.7056C5.2179 36.8418 2.86489 30.8166 2.11503 27.6567C2.07687 27.5043 2.0666 27.3448 2.08482 27.1878C2.10305 27.0308 2.14939 26.8796 2.22104 26.7434C2.28137 26.6203 2.36306 26.5122 2.46124 26.4254C2.55942 26.3387 2.67208 26.2752 2.79249 26.2387C5.05313 25.5985 7.40744 25.4991 9.70415 25.9469C10.3651 28.073 11.2014 30.1244 12.202 32.0742C15.6358 38.8142 20.647 43.6489 24.6833 46.4032C20.3445 45.8524 16.164 44.2425 12.4321 41.6852V41.7056ZM30.0151 46.4732C28.3297 45.1493 26.8394 43.5345 25.5986 41.6881C22.3406 36.9147 20.6935 31.0559 20.6935 24.2546C20.6935 11.3436 26.7674 4.77867 29.379 2.55826C29.5585 2.40536 29.7772 2.32265 30.0021 2.32265C30.227 2.32265 30.4458 2.40536 30.6253 2.55826C33.2369 4.77867 39.3107 11.3436 39.3107 24.2546C39.3107 31.0559 37.6636 36.9147 34.4185 41.6677C33.1778 43.5141 31.6875 45.1289 30.0021 46.4528L30.0151 46.4732ZM57.9021 27.6567C57.1471 30.8166 54.7993 36.8418 47.5851 41.7056C43.8527 44.2608 39.6723 45.8688 35.3339 46.4178C39.3702 43.6634 44.3839 38.8317 47.8152 32.0888C48.8158 30.139 49.652 28.0876 50.313 25.9615C52.6096 25.5123 54.9642 25.6117 57.2247 26.2533C57.3451 26.2898 57.4577 26.3533 57.5559 26.44C57.6541 26.5268 57.7358 26.6349 57.7961 26.758C57.9281 27.0257 57.9615 27.3411 57.8892 27.6363L57.9021 27.6567Z" fill="white"/>
</svg>
