<svg width="100" height="100" viewBox="0 0 250 250" fill="none" xmlns="http://www.w3.org/2000/svg">
<path d="M125 0C100.277 0 76.1099 7.33112 55.5538 21.0663C34.9976 34.8015 18.9761 54.3238 9.51511 77.1646C0.0541586 100.005 -2.42126 125.139 2.4019 149.386C7.22505 173.634 19.1301 195.907 36.6117 213.388C54.0933 230.87 76.3661 242.775 100.614 247.598C124.861 252.421 149.995 249.946 172.835 240.485C195.676 231.024 215.199 215.002 228.934 194.446C242.669 173.89 250 149.723 250 125C249.964 91.8591 236.782 60.086 213.348 36.6518C189.914 13.2177 158.141 0.036395 125 0ZM125 240C102.255 240 80.0211 233.255 61.1095 220.619C42.1978 207.983 27.458 190.022 18.7539 169.009C10.0498 147.995 7.77245 124.872 12.2097 102.565C16.647 80.2568 27.5997 59.7657 43.6828 43.6827C59.7658 27.5997 80.2568 16.647 102.565 12.2097C124.872 7.77239 147.995 10.0498 169.009 18.7538C190.022 27.4579 207.983 42.1978 220.619 61.1094C233.255 80.0211 240 102.255 240 125C239.967 155.49 227.84 184.721 206.281 206.281C184.721 227.84 155.49 239.967 125 240ZM167.775 120.837L107.775 80.8375C107.022 80.335 106.146 80.0464 105.242 80.0026C104.338 79.9588 103.438 80.1614 102.64 80.5887C101.842 81.0161 101.175 81.6521 100.71 82.429C100.245 83.206 99.9994 84.0946 100 85V165C99.999 165.905 100.244 166.794 100.708 167.571C101.173 168.348 101.84 168.985 102.638 169.412C103.436 169.84 104.336 170.043 105.241 169.999C106.146 169.955 107.022 169.666 107.775 169.162L167.775 129.162C168.461 128.706 169.023 128.087 169.412 127.361C169.801 126.635 170.005 125.824 170.005 125C170.005 124.176 169.801 123.365 169.412 122.639C169.023 121.913 168.461 121.294 167.775 120.837ZM110 155.662V94.3375L155.988 125L110 155.662Z" fill="white"/>
</svg>
